<svg id="svg" version="1.1" xmlns="http://www.w3.org/2000/svg" style="display: block;" viewBox="0 0 555 288"><path d="M0,0 L555,0 L555,288 L0,288 Z " transform="translate(0,0)" style="fill: #2D878F;"/><path d="M0,0 L14,0 L14,30 L15,30 L15,29 L16,29 L16,28 L17,28 L17,27 L18,27 L18,26 L19,26 L19,25 L21,25 L21,24 L23,24 L23,23 L39,23 L39,24 L42,24 L42,25 L44,25 L44,26 L46,26 L46,27 L47,27 L47,28 L48,28 L48,29 L50,29 L50,30 L51,30 L51,32 L52,32 L52,33 L53,33 L53,35 L54,35 L54,36 L55,36 L55,38 L56,38 L56,41 L57,41 L57,44 L58,44 L58,57 L57,57 L57,60 L56,60 L56,63 L55,63 L55,65 L54,65 L54,67 L53,67 L53,68 L52,68 L52,70 L51,70 L51,71 L50,71 L50,72 L49,72 L49,73 L48,73 L48,74 L46,74 L46,75 L45,75 L45,76 L43,76 L43,77 L40,77 L40,78 L37,78 L37,79 L25,79 L25,78 L23,78 L23,77 L21,77 L21,76 L19,76 L19,75 L18,75 L18,74 L17,74 L17,73 L16,73 L16,72 L15,72 L15,71 L14,71 L14,77 L0,77 Z " transform="translate(218,76)" style="fill: #11EBA2;"/><path d="M0,0 L12,0 L12,1 L14,1 L14,2 L17,2 L17,3 L20,3 L20,4 L21,4 L21,5 L23,5 L23,6 L24,6 L24,7 L25,7 L25,8 L27,8 L27,10 L28,10 L28,11 L29,11 L29,12 L30,12 L30,14 L31,14 L31,16 L32,16 L32,18 L33,18 L33,22 L34,22 L34,37 L33,37 L33,39 L32,39 L32,42 L31,42 L31,43 L30,43 L30,45 L29,45 L29,46 L28,46 L28,48 L27,48 L27,49 L26,49 L26,50 L25,50 L25,51 L23,51 L23,52 L22,52 L22,53 L20,53 L20,54 L18,54 L18,55 L15,55 L15,56 L12,56 L12,57 L-1,57 L-1,56 L-4,56 L-4,55 L-6,55 L-6,54 L-9,54 L-9,53 L-10,53 L-10,52 L-12,52 L-12,51 L-13,51 L-13,50 L-14,50 L-14,49 L-15,49 L-15,48 L-16,48 L-16,47 L-17,47 L-17,46 L-18,46 L-18,44 L-19,44 L-19,43 L-20,43 L-20,41 L-21,41 L-21,39 L-22,39 L-22,35 L-23,35 L-23,23 L-22,23 L-22,19 L-21,19 L-21,17 L-20,17 L-20,15 L-19,15 L-19,13 L-18,13 L-18,12 L-17,12 L-17,10 L-16,10 L-16,9 L-15,9 L-15,8 L-14,8 L-14,7 L-13,7 L-13,6 L-11,6 L-11,5 L-10,5 L-10,4 L-8,4 L-8,3 L-6,3 L-6,2 L-2,2 L-2,1 L0,1 Z " transform="translate(357,98)" style="fill: #11EBA2;"/><path d="M0,0 L15,0 L15,1 L20,1 L20,2 L23,2 L23,3 L25,3 L25,4 L27,4 L27,5 L29,5 L29,6 L30,6 L30,7 L32,7 L32,8 L33,8 L33,9 L34,9 L34,10 L35,10 L35,11 L36,11 L36,12 L37,12 L37,14 L38,14 L38,15 L39,15 L39,17 L40,17 L40,19 L37,19 L37,20 L34,20 L34,21 L32,21 L32,22 L26,22 L26,21 L25,21 L25,19 L24,19 L24,18 L23,18 L23,17 L22,17 L22,16 L20,16 L20,15 L18,15 L18,14 L15,14 L15,13 L2,13 L2,14 L0,14 L0,15 L-1,15 L-1,16 L-2,16 L-2,17 L-3,17 L-3,24 L-2,24 L-2,25 L-1,25 L-1,26 L1,26 L1,27 L3,27 L3,28 L6,28 L6,29 L9,29 L9,30 L12,30 L12,31 L15,31 L15,32 L18,32 L18,33 L22,33 L22,34 L25,34 L25,35 L27,35 L27,36 L30,36 L30,37 L32,37 L32,38 L34,38 L34,39 L35,39 L35,40 L36,40 L36,41 L37,41 L37,42 L38,42 L38,43 L39,43 L39,44 L40,44 L40,46 L41,46 L41,49 L42,49 L42,59 L41,59 L41,61 L40,61 L40,64 L39,64 L39,65 L38,65 L38,67 L37,67 L37,68 L36,68 L36,69 L35,69 L35,70 L33,70 L33,71 L32,71 L32,72 L30,72 L30,73 L28,73 L28,74 L26,74 L26,75 L24,75 L24,76 L17,76 L17,77 L8,77 L8,76 L1,76 L1,75 L-2,75 L-2,74 L-4,74 L-4,73 L-6,73 L-6,72 L-8,72 L-8,71 L-9,71 L-9,70 L-11,70 L-11,69 L-12,69 L-12,68 L-13,68 L-13,67 L-14,67 L-14,66 L-15,66 L-15,65 L-16,65 L-16,64 L-17,64 L-17,63 L-18,63 L-18,61 L-19,61 L-19,60 L-20,60 L-20,58 L-21,58 L-21,56 L-22,56 L-22,54 L-19,54 L-19,53 L-16,53 L-16,52 L-13,52 L-13,51 L-7,51 L-7,53 L-6,53 L-6,55 L-5,55 L-5,56 L-4,56 L-4,57 L-3,57 L-3,58 L-2,58 L-2,59 L-1,59 L-1,60 L0,60 L0,61 L2,61 L2,62 L4,62 L4,63 L7,63 L7,64 L19,64 L19,63 L21,63 L21,62 L23,62 L23,61 L24,61 L24,60 L25,60 L25,59 L26,59 L26,58 L27,58 L27,51 L26,51 L26,50 L25,50 L25,49 L24,49 L24,48 L22,48 L22,47 L19,47 L19,46 L16,46 L16,45 L13,45 L13,44 L11,44 L11,43 L6,43 L6,42 L3,42 L3,41 L1,41 L1,40 L-3,40 L-3,39 L-5,39 L-5,38 L-8,38 L-8,37 L-9,37 L-9,36 L-10,36 L-10,35 L-12,35 L-12,34 L-13,34 L-13,33 L-14,33 L-14,32 L-15,32 L-15,31 L-16,31 L-16,29 L-17,29 L-17,26 L-18,26 L-18,15 L-17,15 L-17,13 L-16,13 L-16,11 L-15,11 L-15,10 L-14,10 L-14,9 L-13,9 L-13,8 L-12,8 L-12,7 L-11,7 L-11,6 L-10,6 L-10,5 L-9,5 L-9,4 L-7,4 L-7,3 L-5,3 L-5,2 L-3,2 L-3,1 L0,1 Z " transform="translate(104,78)" style="fill: #11EAA2;"/><path d="M0,0 L19,0 L19,1 L21,1 L21,2 L23,2 L23,3 L25,3 L25,4 L26,4 L26,5 L28,5 L28,6 L29,6 L29,7 L30,7 L30,8 L31,8 L31,9 L32,9 L32,11 L33,11 L33,13 L34,13 L34,15 L35,15 L35,17 L36,17 L36,24 L37,24 L37,32 L-5,32 L-5,35 L-4,35 L-4,37 L-3,37 L-3,39 L-2,39 L-2,40 L-1,40 L-1,41 L0,41 L0,42 L2,42 L2,43 L6,43 L6,44 L15,44 L15,43 L18,43 L18,42 L20,42 L20,41 L21,41 L21,40 L22,40 L22,39 L23,39 L23,37 L26,37 L26,38 L28,38 L28,39 L33,39 L33,40 L36,40 L36,43 L35,43 L35,44 L34,44 L34,45 L33,45 L33,46 L32,46 L32,48 L31,48 L31,49 L29,49 L29,50 L28,50 L28,51 L26,51 L26,52 L25,52 L25,53 L23,53 L23,54 L20,54 L20,55 L16,55 L16,56 L6,56 L6,55 L-1,55 L-1,54 L-3,54 L-3,53 L-5,53 L-5,52 L-7,52 L-7,51 L-8,51 L-8,50 L-9,50 L-9,49 L-10,49 L-10,48 L-11,48 L-11,47 L-12,47 L-12,46 L-13,46 L-13,45 L-14,45 L-14,44 L-15,44 L-15,42 L-16,42 L-16,40 L-17,40 L-17,37 L-18,37 L-18,32 L-19,32 L-19,22 L-18,22 L-18,18 L-17,18 L-17,15 L-16,15 L-16,13 L-15,13 L-15,12 L-14,12 L-14,10 L-13,10 L-13,9 L-12,9 L-12,8 L-11,8 L-11,7 L-10,7 L-10,6 L-9,6 L-9,5 L-8,5 L-8,4 L-6,4 L-6,3 L-5,3 L-5,2 L-3,2 L-3,1 L0,1 Z " transform="translate(441,99)" style="fill: #11EBA2;"/><path d="M0,0 L14,0 L14,33 L15,33 L15,36 L16,36 L16,38 L17,38 L17,39 L18,39 L18,40 L20,40 L20,41 L21,41 L21,42 L29,42 L29,41 L31,41 L31,40 L33,40 L33,39 L34,39 L34,38 L35,38 L35,37 L36,37 L36,35 L37,35 L37,33 L38,33 L38,30 L39,30 L39,0 L53,0 L53,54 L38,54 L38,48 L37,48 L37,49 L36,49 L36,50 L35,50 L35,51 L34,51 L34,52 L32,52 L32,53 L30,53 L30,54 L27,54 L27,55 L15,55 L15,54 L12,54 L12,53 L11,53 L11,52 L9,52 L9,51 L8,51 L8,50 L7,50 L7,49 L6,49 L6,48 L5,48 L5,47 L4,47 L4,46 L3,46 L3,44 L2,44 L2,40 L1,40 L1,37 L0,37 Z " transform="translate(154,100)" style="fill: #11EAA2;"/><path d="M0,0 L11,0 L11,1 L14,1 L14,2 L17,2 L17,3 L19,3 L19,4 L21,4 L21,5 L23,5 L23,6 L24,6 L24,7 L25,7 L25,8 L26,8 L26,9 L27,9 L27,11 L28,11 L28,12 L29,12 L29,14 L27,14 L27,15 L25,15 L25,16 L20,16 L20,17 L16,17 L16,15 L15,15 L15,14 L13,14 L13,13 L12,13 L12,12 L10,12 L10,11 L3,11 L3,12 L0,12 L0,13 L-1,13 L-1,14 L-2,14 L-2,18 L-1,18 L-1,19 L0,19 L0,20 L4,20 L4,21 L6,21 L6,22 L9,22 L9,23 L14,23 L14,24 L16,24 L16,25 L19,25 L19,26 L22,26 L22,27 L24,27 L24,28 L25,28 L25,29 L27,29 L27,30 L28,30 L28,32 L29,32 L29,33 L30,33 L30,36 L31,36 L31,44 L30,44 L30,45 L29,45 L29,47 L28,47 L28,49 L27,49 L27,50 L26,50 L26,51 L25,51 L25,52 L24,52 L24,53 L22,53 L22,54 L20,54 L20,55 L17,55 L17,56 L13,56 L13,57 L0,57 L0,56 L-3,56 L-3,55 L-5,55 L-5,54 L-7,54 L-7,53 L-9,53 L-9,52 L-10,52 L-10,51 L-11,51 L-11,50 L-13,50 L-13,49 L-14,49 L-14,48 L-15,48 L-15,46 L-16,46 L-16,45 L-17,45 L-17,43 L-18,43 L-18,40 L-16,40 L-16,39 L-12,39 L-12,38 L-9,38 L-9,37 L-6,37 L-6,38 L-5,38 L-5,39 L-4,39 L-4,41 L-3,41 L-3,42 L-2,42 L-2,43 L0,43 L0,44 L1,44 L1,45 L13,45 L13,44 L15,44 L15,43 L16,43 L16,42 L17,42 L17,38 L16,38 L16,37 L15,37 L15,36 L13,36 L13,35 L11,35 L11,34 L6,34 L6,33 L4,33 L4,32 L-1,32 L-1,31 L-3,31 L-3,30 L-7,30 L-7,29 L-8,29 L-8,28 L-10,28 L-10,27 L-11,27 L-11,26 L-12,26 L-12,25 L-13,25 L-13,24 L-14,24 L-14,22 L-15,22 L-15,20 L-16,20 L-16,12 L-15,12 L-15,10 L-14,10 L-14,9 L-13,9 L-13,7 L-12,7 L-12,6 L-10,6 L-10,5 L-9,5 L-9,4 L-7,4 L-7,3 L-5,3 L-5,2 L-3,2 L-3,1 L0,1 Z " transform="translate(298,98)" style="fill: #12EAA2;"/><path d="M0,0 L14,0 L14,77 L0,77 Z " transform="translate(400,76)" style="fill: #11EBA2;"/><path d="M0,0 L9,0 L9,1 L12,1 L12,2 L14,2 L14,3 L15,3 L15,4 L16,4 L16,5 L17,5 L17,6 L18,6 L18,8 L19,8 L19,10 L20,10 L20,21 L19,21 L19,23 L18,23 L18,25 L17,25 L17,26 L16,26 L16,27 L15,27 L15,28 L14,28 L14,29 L12,29 L12,30 L11,30 L11,31 L1,31 L1,30 L-2,30 L-2,29 L-4,29 L-4,28 L-5,28 L-5,27 L-6,27 L-6,26 L-7,26 L-7,25 L-8,25 L-8,23 L-9,23 L-9,21 L-10,21 L-10,10 L-9,10 L-9,8 L-8,8 L-8,6 L-7,6 L-7,5 L-6,5 L-6,4 L-5,4 L-5,3 L-4,3 L-4,2 L-2,2 L-2,1 L0,1 Z " transform="translate(242,111)" style="fill: #2D888F;"/><path d="M0,0 L9,0 L9,1 L11,1 L11,2 L13,2 L13,3 L15,3 L15,4 L16,4 L16,6 L17,6 L17,7 L18,7 L18,9 L19,9 L19,11 L20,11 L20,20 L19,20 L19,23 L18,23 L18,24 L17,24 L17,26 L16,26 L16,27 L15,27 L15,28 L14,28 L14,29 L12,29 L12,30 L9,30 L9,31 L-1,31 L-1,30 L-3,30 L-3,29 L-4,29 L-4,28 L-6,28 L-6,27 L-7,27 L-7,25 L-8,25 L-8,23 L-9,23 L-9,22 L-10,22 L-10,10 L-9,10 L-9,8 L-8,8 L-8,6 L-7,6 L-7,5 L-6,5 L-6,4 L-5,4 L-5,3 L-4,3 L-4,2 L-2,2 L-2,1 L0,1 Z " transform="translate(358,111)" style="fill: #338C93;"/><path d="M0,0 L6,0 L6,1 L8,1 L8,2 L9,2 L9,3 L10,3 L10,1 L15,1 L15,21 L10,21 L10,20 L8,20 L8,21 L7,21 L7,22 L0,22 L0,21 L-2,21 L-2,20 L-3,20 L-3,19 L-4,19 L-4,18 L-5,18 L-5,16 L-6,16 L-6,14 L-7,14 L-7,8 L-6,8 L-6,6 L-5,6 L-5,4 L-4,4 L-4,3 L-3,3 L-3,2 L-1,2 L-1,1 L0,1 Z " transform="translate(320,174)" style="fill: #12E8A2;"/><path d="M0,0 L6,0 L6,1 L9,1 L9,2 L10,2 L10,3 L12,3 L12,5 L13,5 L13,6 L14,6 L14,16 L13,16 L13,18 L12,18 L12,19 L11,19 L11,20 L9,20 L9,21 L7,21 L7,22 L-1,22 L-1,21 L-2,21 L-2,20 L-4,20 L-4,19 L-5,19 L-5,18 L-6,18 L-6,16 L-7,16 L-7,6 L-6,6 L-6,5 L-5,5 L-5,3 L-3,3 L-3,2 L-2,2 L-2,1 L0,1 Z " transform="translate(120,174)" style="fill: #12E7A1;"/><path d="M0,0 L6,0 L6,1 L9,1 L9,2 L10,2 L10,3 L12,3 L12,5 L13,5 L13,6 L14,6 L14,16 L13,16 L13,18 L12,18 L12,19 L11,19 L11,20 L9,20 L9,21 L7,21 L7,22 L0,22 L0,21 L-2,21 L-2,20 L-4,20 L-4,19 L-5,19 L-5,18 L-6,18 L-6,16 L-7,16 L-7,6 L-6,6 L-6,5 L-5,5 L-5,3 L-3,3 L-3,2 L-2,2 L-2,1 L0,1 Z " transform="translate(282,174)" style="fill: #12E8A1;"/><path d="M0,0 L11,0 L11,1 L14,1 L14,2 L15,2 L15,3 L16,3 L16,4 L17,4 L17,5 L18,5 L18,6 L19,6 L19,9 L17,9 L17,10 L14,10 L14,9 L13,9 L13,8 L12,8 L12,7 L11,7 L11,6 L9,6 L9,5 L2,5 L2,6 L0,6 L0,7 L-1,7 L-1,8 L-2,8 L-2,10 L-3,10 L-3,18 L-2,18 L-2,20 L-1,20 L-1,21 L0,21 L0,22 L1,22 L1,23 L3,23 L3,24 L8,24 L8,23 L11,23 L11,22 L12,22 L12,21 L13,21 L13,20 L14,20 L14,19 L19,19 L19,22 L18,22 L18,24 L17,24 L17,25 L16,25 L16,26 L14,26 L14,27 L12,27 L12,28 L9,28 L9,29 L1,29 L1,28 L-1,28 L-1,27 L-3,27 L-3,26 L-4,26 L-4,25 L-5,25 L-5,24 L-6,24 L-6,23 L-7,23 L-7,21 L-8,21 L-8,19 L-9,19 L-9,10 L-8,10 L-8,8 L-7,8 L-7,6 L-6,6 L-6,5 L-5,5 L-5,4 L-4,4 L-4,3 L-3,3 L-3,2 L-2,2 L-2,1 L0,1 Z " transform="translate(91,167)" style="fill: #12E7A1;"/><path d="M0,0 L5,0 L5,13 L6,13 L6,15 L7,15 L7,16 L11,16 L11,15 L13,15 L13,14 L14,14 L14,0 L20,0 L20,21 L14,21 L14,19 L12,19 L12,20 L10,20 L10,21 L6,21 L6,20 L3,20 L3,19 L2,19 L2,18 L1,18 L1,16 L0,16 Z " transform="translate(213,175)" style="fill: #12E6A1;"/><path d="M0,0 L5,0 L5,1 L7,1 L7,2 L8,2 L8,3 L9,3 L9,4 L10,4 L10,6 L11,6 L11,22 L5,22 L5,7 L4,7 L4,6 L3,6 L3,5 L-1,5 L-1,6 L-2,6 L-2,7 L-3,7 L-3,8 L-4,8 L-4,21 L-9,21 L-9,1 L-4,1 L-4,3 L-3,3 L-3,2 L-2,2 L-2,1 L0,1 Z " transform="translate(147,174)" style="fill: #12E6A1;"/><path d="M0,0 L8,0 L8,1 L10,1 L10,2 L12,2 L12,3 L14,3 L14,4 L15,4 L15,5 L16,5 L16,7 L17,7 L17,9 L18,9 L18,12 L-10,12 L-10,9 L-9,9 L-9,7 L-8,7 L-8,6 L-7,6 L-7,5 L-6,5 L-6,4 L-5,4 L-5,3 L-4,3 L-4,2 L-2,2 L-2,1 L0,1 Z " transform="translate(446,110)" style="fill: #399096;"/><path d="M0,0 L6,0 L6,1 L9,1 L9,2 L10,2 L10,3 L11,3 L11,4 L12,4 L12,6 L10,6 L10,7 L7,7 L7,6 L6,6 L6,5 L1,5 L1,7 L2,7 L2,8 L3,8 L3,9 L8,9 L8,10 L10,10 L10,11 L11,11 L11,12 L12,12 L12,13 L13,13 L13,17 L12,17 L12,19 L11,19 L11,20 L10,20 L10,21 L8,21 L8,22 L0,22 L0,21 L-2,21 L-2,20 L-3,20 L-3,19 L-4,19 L-4,18 L-5,18 L-5,17 L-6,17 L-6,15 L0,15 L0,16 L1,16 L1,17 L2,17 L2,18 L6,18 L6,17 L7,17 L7,16 L8,16 L8,15 L7,15 L7,14 L5,14 L5,13 L1,13 L1,12 L-2,12 L-2,11 L-3,11 L-3,10 L-4,10 L-4,9 L-5,9 L-5,4 L-4,4 L-4,3 L-3,3 L-3,2 L-2,2 L-2,1 L0,1 Z " transform="translate(166,174)" style="fill: #13E4A0;"/><path d="M0,0 L8,0 L8,1 L9,1 L9,2 L11,2 L11,3 L12,3 L12,4 L13,4 L13,6 L14,6 L14,7 L13,7 L13,8 L8,8 L8,6 L6,6 L6,5 L1,5 L1,6 L0,6 L0,7 L-1,7 L-1,9 L-2,9 L-2,13 L-1,13 L-1,15 L0,15 L0,16 L1,16 L1,17 L7,17 L7,16 L8,16 L8,15 L9,15 L9,14 L12,14 L12,15 L14,15 L14,17 L13,17 L13,18 L12,18 L12,19 L11,19 L11,20 L10,20 L10,21 L6,21 L6,22 L0,22 L0,21 L-2,21 L-2,20 L-3,20 L-3,19 L-4,19 L-4,18 L-5,18 L-5,17 L-6,17 L-6,14 L-7,14 L-7,7 L-6,7 L-6,5 L-5,5 L-5,4 L-4,4 L-4,3 L-3,3 L-3,2 L-1,2 L-1,1 L0,1 Z " transform="translate(243,174)" style="fill: #13E5A1;"/><path d="M0,0 L6,0 L6,7 L12,7 L12,12 L6,12 L6,23 L11,23 L11,25 L12,25 L12,27 L10,27 L10,28 L4,28 L4,27 L3,27 L3,26 L2,26 L2,25 L1,25 L1,23 L0,23 L0,12 L-3,12 L-3,7 L0,7 Z " transform="translate(261,168)" style="fill: #14E3A0;"/><path d="M0,0 L5,0 L5,7 L11,7 L11,12 L5,12 L5,22 L6,22 L6,23 L10,23 L10,24 L11,24 L11,27 L9,27 L9,28 L4,28 L4,27 L2,27 L2,26 L1,26 L1,24 L0,24 L0,11 L-4,11 L-4,7 L0,7 Z " transform="translate(184,168)" style="fill: #12E8A2;"/><path d="M0,0 L6,0 L6,1 L8,1 L8,0 L12,0 L12,4 L9,4 L9,5 L8,5 L8,6 L7,6 L7,7 L6,7 L6,21 L0,21 Z " transform="translate(198,175)" style="fill: #13E3A0;"/><path d="M0,0 L5,0 L5,2 L6,2 L6,1 L7,1 L7,0 L12,0 L12,5 L7,5 L7,6 L6,6 L6,8 L5,8 L5,20 L0,20 Z " transform="translate(300,175)" style="fill: #11EAA2;"/><path d="M0,0 L5,0 L5,1 L6,1 L6,2 L7,2 L7,3 L8,3 L8,9 L7,9 L7,11 L5,11 L5,12 L-1,12 L-1,11 L-2,11 L-2,9 L-3,9 L-3,3 L-2,3 L-2,2 L-1,2 L-1,1 L0,1 Z " transform="translate(283,179)" style="fill: #2B8B8F;"/><path d="M0,0 L5,0 L5,1 L6,1 L6,2 L7,2 L7,3 L8,3 L8,9 L7,9 L7,11 L5,11 L5,12 L-1,12 L-1,11 L-2,11 L-2,9 L-3,9 L-3,3 L-2,3 L-2,2 L-1,2 L-1,1 L0,1 Z " transform="translate(121,179)" style="fill: #22858A;"/><path d="M0,0 L4,0 L4,1 L6,1 L6,2 L7,2 L7,3 L8,3 L8,9 L7,9 L7,10 L6,10 L6,11 L5,11 L5,12 L0,12 L0,11 L-2,11 L-2,10 L-3,10 L-3,2 L-2,2 L-2,1 L0,1 Z " transform="translate(322,179)" style="fill: #2F8B90;"/></svg>